<svg width="92" height="34" viewBox="0 0 92 34" fill="none" xmlns="http://www.w3.org/2000/svg">
<path d="M10 23.881V10H15.2769C18.4907 10 20.3555 11.3484 20.3555 13.6686C20.3555 15.4136 19.3239 16.4051 17.7369 16.7422C19.5818 16.9802 20.8515 17.9518 20.8515 19.9348C20.8515 22.3541 18.947 23.881 15.5348 23.881H10ZM15.3563 12.3399H12.9757V15.711H15.3563C16.6259 15.711 17.3798 15.0567 17.3798 14.0255C17.3798 12.9943 16.6458 12.3399 15.3563 12.3399ZM15.5547 18.0113H12.9757V21.5212H15.5547C16.983 21.5212 17.7964 20.8669 17.7964 19.796C17.7964 18.6657 16.9632 18.0113 15.5547 18.0113Z" fill="#222222"/>
<path d="M27.3197 24C23.9274 24 21.8841 21.9575 21.8841 18.8045C21.8841 15.6317 23.9671 13.5694 27.1213 13.5694C30.1764 13.5694 32.2396 15.4731 32.2793 18.4674C32.2793 18.7649 32.2594 19.102 32.1999 19.4193H24.8003V19.5581C24.8598 21.0057 25.7922 21.8782 27.2007 21.8782C28.3315 21.8782 29.125 21.3824 29.3631 20.4306H32.1206C31.8032 22.4136 30.0376 24 27.3197 24ZM24.8598 17.5949H29.4622C29.2639 16.3456 28.4108 15.6516 27.1412 15.6516C25.9311 15.6516 25.0185 16.3853 24.8598 17.5949Z" fill="#222222"/>
<path d="M32.4391 11.5864V10H43.1715V11.5864H38.6682V23.881H36.9423V11.5864H32.4391Z" fill="#222222"/>
<path d="M51.3614 22.3938H51.8772V23.881H50.9845C49.6355 23.881 49.1792 23.3059 49.1594 22.3144C48.5245 23.2266 47.5128 24 45.767 24C43.5452 24 42.0375 22.8895 42.0375 21.0453C42.0375 19.0227 43.446 17.8924 46.1043 17.8924H49.08V17.1983C49.08 15.8895 48.1476 15.0963 46.5606 15.0963C45.1322 15.0963 44.18 15.7705 43.9816 16.8017H42.3549C42.5929 14.8187 44.1998 13.6487 46.6399 13.6487C49.2189 13.6487 50.7067 14.9377 50.7067 17.2975V21.7195C50.7067 22.255 50.9051 22.3938 51.3614 22.3938ZM49.08 19.7564V19.2606H45.9456C44.4974 19.2606 43.684 19.796 43.684 20.9462C43.684 21.9377 44.5371 22.6119 45.8861 22.6119C47.9096 22.6119 49.08 21.4419 49.08 19.7564Z" fill="#222222"/>
<path d="M52.3342 23.881V10H53.961V23.881H52.3342Z" fill="#222222"/>
<path d="M60.0579 24C57.0227 24 55.0389 21.9178 55.0389 18.8244C55.0389 15.7507 56.983 13.6487 59.8397 13.6487C62.6964 13.6487 64.5612 15.4533 64.6405 18.4476C64.6405 18.6657 64.6207 18.9037 64.6009 19.1416H56.745V19.2805C56.8045 21.204 58.0146 22.5524 59.9389 22.5524C61.3673 22.5524 62.4782 21.7989 62.8154 20.4901H64.462C64.0652 22.5127 62.3988 24 60.0579 24ZM56.8442 17.7932H62.8948C62.7361 16.0482 61.5458 15.0765 59.8596 15.0765C58.3717 15.0765 57.0029 16.1473 56.8442 17.7932Z" fill="#222222"/>
<path d="M70.6628 13.6487C72.9442 13.6487 74.7495 14.898 74.7495 18.2493V23.881H73.1227V18.3484C73.1227 16.2465 72.1507 15.136 70.3851 15.136C68.4806 15.136 67.33 16.5439 67.33 18.8244V23.881H65.7033V13.7677H67.1118L67.33 15.136C67.9252 14.3626 68.9567 13.6487 70.6628 13.6487Z" fill="#222222"/>
<path d="M76.7838 21.2436V15.255H74.9587V13.7677H76.7838V10.932H78.4105V13.7677H81.0292V15.255H78.4105V21.2238C78.4105 22.0765 78.7081 22.3938 79.581 22.3938H81.1879V23.881H79.4223C77.4781 23.881 76.7838 23.0283 76.7838 21.2436Z" fill="#222222"/>
</svg>
